<svg class="svg-icon" style="width: 1em; height: 1em;vertical-align: middle;fill: currentColor;overflow: hidden;" viewBox="0 0 1024 1024" version="1.1" xmlns="http://www.w3.org/2000/svg"><path d="M0 0h1024v1024H0z" fill="#FFFFFF" /><path d="M577.58 232L516 172.88 454.42 232H304.248L445.56 96.34a101.712 101.712 0 0 1 140.88 0L727.752 232h-150.172z" fill="#4DBB88" opacity=".5" /><path d="M210.12 230h611.76c51.984 0 94.12 42.136 94.12 94.12v451.76c0 51.984-42.136 94.12-94.12 94.12H210.12C158.132 870 116 827.864 116 775.88V324.12C116 272.132 158.136 230 210.12 230z" fill="#4DBB88" /><path d="M268 408m36 0l424 0q36 0 36 36l0 0q0 36-36 36l-424 0q-36 0-36-36l0 0q0-36 36-36Z" fill="#FFFFFF" /><path d="M268 620m36 0l240 0q36 0 36 36l0 0q0 36-36 36l-240 0q-36 0-36-36l0 0q0-36 36-36Z" fill="#FFFFFF" /></svg>